<svg width="100" height="100" viewBox="0 0 100 100" fill="none" xmlns="http://www.w3.org/2000/svg">
<rect width="100" height="100" rx="10" fill="white"/>
<mask id="mask0_0_263" style="mask-type:luminance" maskUnits="userSpaceOnUse" x="0" y="0" width="100" height="100">
<rect width="100" height="100" rx="10" fill="white"/>
</mask>
<g mask="url(#mask0_0_263)">
<path fill-rule="evenodd" clip-rule="evenodd" d="M58.999 25.5202C59.0748 29.6161 54.9198 33.443 48.9996 37C42.4755 33.0928 38.9731 29.3601 39.0003 25.5202C39.0003 21.925 41.9303 19 45.5316 19C46.7705 19 47.9702 19.352 48.9996 19.9963C50.029 19.352 51.2288 19 52.4676 19C56.069 19 58.9988 21.925 58.999 25.5202ZM48.4829 24.8048C47.71 23.8807 46.8055 22.7994 45.5316 22.8375C44.0499 22.8375 42.8444 24.041 42.8444 25.5202C42.8444 26.8514 43.9437 29.1101 48.9996 32.4545C54.0556 29.1101 55.1549 26.8514 55.1549 25.5202C55.1549 24.041 53.9494 22.8375 52.4676 22.8375C51.2678 22.7159 50.1813 24.0073 49.3878 24.9504C49.2491 25.1152 49.1194 25.2694 48.9996 25.4035C48.8324 25.2228 48.6612 25.018 48.4829 24.8048Z" fill="#FC1D37"/>
<path fill-rule="evenodd" clip-rule="evenodd" d="M71.8952 56.1197C74.6016 54.0483 76.3516 50.7795 76.3516 47.1078C76.3516 40.8609 71.2874 35.7788 65.0626 35.7788C58.8379 35.7788 53.7736 40.861 53.7736 47.1078C53.7736 50.7794 55.5235 54.0479 58.2298 56.1194C57.5679 56.4135 56.9277 56.7482 56.3134 57.1217C54.643 55.6012 52.4276 54.6736 50.0001 54.6736C48.726 54.6736 47.5107 54.9304 46.4015 55.3931C45.0431 54.1373 43.4804 53.1014 41.7696 52.3414C44.4764 50.2699 46.2266 47.0009 46.2266 43.329C46.2266 37.082 41.1624 32 34.9376 32C28.7129 32 23.6486 37.0822 23.6486 43.329C23.6486 47.0007 25.3986 50.2693 28.105 52.3409C22.1591 54.9818 18 60.9583 18 67.892V83H82V71.671C82 64.7372 77.8409 58.7608 71.8952 56.1197ZM57.5235 47.1078C57.5235 42.9359 60.9055 39.5421 65.0625 39.5421C69.2195 39.5421 72.6015 42.9361 72.6015 47.1078C72.6015 51.2795 69.2195 54.6735 65.0625 54.6735C60.9055 54.6735 57.5235 51.2796 57.5235 47.1078ZM50 69.7894C53.1189 69.7894 55.6562 67.243 55.6562 64.1131C55.6562 60.9831 53.1189 58.4369 50 58.4369C46.8811 58.4369 44.3438 60.9832 44.3438 64.1131C44.3438 67.243 46.8811 69.7894 50 69.7894ZM27.3984 43.3288C27.3984 39.157 30.7804 35.7631 34.9375 35.7631C39.0946 35.7631 42.4765 39.1571 42.4765 43.3288C42.4765 47.5005 39.0945 50.8945 34.9375 50.8945C30.7805 50.8945 27.3984 47.5007 27.3984 43.3288ZM21.75 79.2367H38.8675C39.417 75.952 41.3794 73.1424 44.1044 71.4608C41.9655 69.7289 40.5938 67.0793 40.5938 64.113C40.5938 61.5855 41.5907 59.2886 43.2083 57.5925C40.9446 55.758 38.0669 54.6578 34.9375 54.6578C27.6659 54.6578 21.75 60.5946 21.75 67.892V79.2367ZM42.6969 79.2367C43.5325 75.9722 46.4899 73.5527 50 73.5527C53.5101 73.5527 56.4675 75.9722 57.3031 79.2367H42.6969ZM61.1325 79.2367H78.25V71.6709C78.25 64.3736 72.3341 58.4367 65.0625 58.4367C62.6926 58.4367 60.4678 59.0688 58.5438 60.1716C59.0959 61.372 59.4062 62.7064 59.4062 64.113C59.4062 67.0793 58.0345 69.7291 55.8956 71.4608C58.6206 73.1424 60.583 75.952 61.1325 79.2367Z" fill="#FC1D37"/>
</g>
</svg>
